<svg width="60" height="61" viewBox="0 0 60 61" fill="none" xmlns="http://www.w3.org/2000/svg">
  <path d="M22.4161 47.486H8.08765V44.5529H19.4964V31.3542H22.4161V47.486Z" fill="#004BE9" />
  <path d="M9.36502 41.6272L1.80298 46.0194L9.36502 50.4043V41.6272Z" fill="#004BE9" />
  <path d="M51.9125 48.9599H37.584V32.8281H40.5037V46.0268H51.9125V48.9599Z" fill="#40C851" />
  <path d="M50.635 51.8782L58.1971 47.4933L50.635 43.1011V51.8782Z" fill="#40C851" />
  <path d="M31.4599 34.1626H28.5402V50.4263H31.4599V34.1626Z" fill="#F5F5F5" />
  <path d="M25.635 49.1431L30 56.7397L34.3649 49.1431H25.635Z" fill="#F5F5F5" />
  <path d="M47.4672 11.8496C46.2336 11.8496 45.0438 12.0329 43.9197 12.3775C42.8978 5.58018 37.0511 0.366699 30 0.366699C22.9489 0.366699 17.1022 5.58018 16.0803 12.3775C14.9562 12.0329 13.7665 11.8496 12.5329 11.8496C5.81755 11.8496 0.36499 17.3197 0.36499 24.073C0.36499 30.8264 5.81755 36.3038 12.5402 36.3038H47.4672C54.1898 36.3038 59.6424 30.8264 59.6424 24.073C59.6424 17.3197 54.1898 11.8422 47.4672 11.8422V11.8496Z" fill="#F2F2F2" />
</svg>