<svg width="141" height="136" viewBox="0 0 141 136" xmlns="http://www.w3.org/2000/svg">
  <path fill-rule="evenodd" clip-rule="evenodd" d="M45.8555 24.6536C50.1567 21.3602 54.4579 18.2002 58.7591 15.1738C60.7753 13.8386 61.7162 12.3699 61.7162 10.7677C61.7162 10.6342 61.7162 10.5007 61.7162 10.3672C61.9851 7.42977 66.4207 5.15996 71.3939 5.02644C76.3672 5.02644 80.6684 7.42977 81.0717 10.3672C81.4749 13.8386 77.1737 16.9096 71.3939 16.776C70.7219 16.776 70.0498 16.776 69.3778 16.6425C66.8239 16.3755 64.4045 16.776 62.5227 18.2447C58.1319 21.3602 53.741 24.6536 49.3502 28.1251C47.334 29.7273 46.1243 31.9971 46.2587 34.2669C46.2587 34.534 46.2587 34.801 46.2587 35.068C45.8555 40.6758 41.0166 45.616 35.5057 46.0165C30.398 46.4171 26.9032 42.4115 27.7097 37.3378C28.5162 32.3977 32.9518 27.9916 37.7907 27.1905C38.3283 27.1905 39.0004 27.0569 39.5381 27.1905C41.8231 27.1905 44.1081 26.5229 46.1243 24.9206" fill="var(--color-a)" />
  <path fill-rule="evenodd" clip-rule="evenodd" d="M6.20375 83.5353C5.80051 81.9331 5.39724 80.3309 5.12842 78.7287C5.12842 76.9484 5.26287 75.0347 5.53169 72.9874C5.93493 71.7857 6.06933 69.783 5.93491 67.7802C5.93491 67.6467 5.93491 67.3796 5.93491 67.1126C5.93491 62.4395 7.68227 58.4339 9.96729 58.0334C12.79 57.6328 15.3438 61.7719 15.2094 67.1126C15.2094 67.3796 15.2094 67.6467 15.2094 67.9137C15.2094 70.317 15.7471 72.5869 17.0912 74.1891C20.2275 77.9276 23.6326 81.7996 27.3066 85.8051C29.0539 87.5409 31.2046 88.4755 33.3552 88.075C33.8928 88.075 34.5649 88.075 35.2369 88.075C35.909 88.075 36.5811 88.2085 37.1187 88.4755C39.5382 89.1431 41.9576 88.609 43.705 87.0068C47.9166 83.2683 52.2626 79.3963 56.743 75.3907C58.8936 73.5215 59.8345 70.9846 59.7001 68.0472C59.7001 67.7802 59.7001 67.3796 59.7001 67.1126C59.7001 60.7037 64.9422 55.63 71.2596 55.63C72.0661 55.63 72.8726 55.63 73.5446 55.8971C76.3673 56.4312 79.0555 55.8971 81.2062 53.8943C85.6866 49.9778 90.0326 46.1948 94.2442 42.5453C96.126 40.9431 96.7981 38.6732 96.5293 36.2699C96.5293 36.0029 96.5293 35.7358 96.5293 35.4688C95.9916 30.2616 99.8896 26.7901 104.997 27.4577C109.702 28.3923 114.003 32.7984 114.809 37.6051C115.481 42.8123 112.256 46.6843 107.148 46.2838C106.476 46.2838 105.804 46.1503 105.266 45.8832C102.847 45.2156 100.562 45.7497 98.6799 47.3519C94.4683 51.0904 90.167 54.918 85.7762 58.8345C83.6256 60.7037 82.6847 63.2406 82.8191 66.178C82.8191 66.445 82.8191 66.8456 82.8191 67.1126C82.8191 73.388 77.577 78.5952 71.2596 78.5952C70.4531 78.5952 69.6466 78.5952 68.9746 78.3281C66.1519 77.7941 63.4636 78.3281 61.313 80.3309C56.8326 84.2474 52.4418 88.075 48.1406 91.8135C46.2588 93.4157 45.4523 95.6855 45.8556 98.0888C45.8556 98.3559 45.8556 98.6229 45.8556 98.8899C46.3932 104.097 42.3609 107.702 37.2532 106.901C32.5487 106.1 28.1131 101.56 27.1722 96.7536C27.1722 96.4866 27.1722 96.3531 27.1722 96.086C27.0378 93.8162 25.9624 91.5464 24.3495 89.8107C20.9443 85.9832 17.7185 82.1556 14.6718 78.3281C13.4621 76.5924 12.1179 75.9248 10.7738 76.1918C10.505 76.1918 10.1017 76.1918 9.8329 76.1918C9.56408 76.1918 9.16084 76.0583 8.89202 75.9248C7.81671 75.2572 7.14462 75.7913 6.60697 76.993C6.06932 79.3963 5.84531 81.6216 5.93491 83.6689L6.20375 83.5353Z" fill="var(--color-a)" />
  <path fill-rule="evenodd" clip-rule="evenodd" d="M11.58 87.5408C13.3273 88.0749 15.3436 91.0123 15.8812 93.9497C16.5533 96.8871 15.7468 98.3558 14.1339 97.5546C12.7897 96.7535 11.1768 94.0832 10.3703 91.4128C9.69824 88.7424 10.2359 86.8732 11.7144 87.4073" fill="var(--color-b)" />
  <path fill-rule="evenodd" clip-rule="evenodd" d="M43.0326 8.89845C47.1994 7.8303 50.1565 8.89845 49.35 11.8358C48.678 15.3073 43.8391 18.9123 39.0002 19.8469C34.4302 20.9151 32.0108 18.9123 33.3549 15.8414C34.8334 13.171 39.0002 10.2336 43.0326 8.89845Z" fill="var(--color-b)" />
  <path fill-rule="evenodd" clip-rule="evenodd" d="M34.6989 59.235C38.5969 59.235 41.8228 62.573 41.8228 66.9791C41.8228 71.3852 38.5969 74.8566 34.6989 74.7231C30.9354 74.7231 27.9783 71.1181 27.9783 66.9791C27.9783 62.84 30.9354 59.3685 34.6989 59.235Z" fill="var(--color-b)" />
  <path fill-rule="evenodd" clip-rule="evenodd" d="M39.9415 117.716C42.0921 118.25 44.3772 119.852 44.7804 121.454C45.3181 122.923 43.9739 123.457 41.8233 123.057C39.8071 122.523 37.7909 120.92 37.1189 119.585C36.5812 118.116 37.7909 117.315 39.9415 117.849" fill="var(--color-b)" />
  <path fill-rule="evenodd" clip-rule="evenodd" d="M71.3936 26.7901C75.9637 26.7901 79.8616 30.2616 79.9961 34.4007C79.9961 38.8068 76.2325 42.4118 71.3936 42.4118C66.5548 42.4118 62.6568 38.8068 62.7912 34.4007C62.7912 30.2616 66.6892 26.9236 71.3936 26.7901Z" fill="var(--color-b)" />
  <path fill-rule="evenodd" clip-rule="evenodd" d="M71.3943 89.1431C77.7117 89.1431 82.6849 93.8162 82.4161 99.4239C82.1473 104.765 77.174 109.037 71.2599 109.171C65.3457 109.171 60.3724 104.898 60.238 99.5575C60.1036 93.8162 65.0769 89.1431 71.3943 89.1431Z" fill="var(--color-b)" />
  <path fill-rule="evenodd" clip-rule="evenodd" d="M99.3517 9.16546C103.25 10.5006 107.416 13.5716 108.895 16.1084C110.239 19.1793 107.954 21.0486 103.518 20.1139C98.6796 19.1793 93.9752 15.4408 93.1687 12.1029C92.3623 9.16546 95.1849 8.09732 99.3517 9.29898" fill="var(--color-b)" />
  <path fill-rule="evenodd" clip-rule="evenodd" d="M107.82 56.1638C112.927 56.4309 116.96 61.2375 117.094 66.9788C117.094 72.7201 112.927 77.6603 107.82 77.7938C102.309 78.0608 97.7386 73.1207 97.873 66.9788C97.873 60.837 102.443 55.8968 107.82 56.1638Z" fill="var(--color-b)" />
  <path fill-rule="evenodd" clip-rule="evenodd" d="M107.282 87.808C112.39 87.4074 115.616 91.2794 114.944 96.4866C114.137 101.293 109.836 105.833 104.997 106.634C99.8894 107.435 96.1259 103.964 96.5291 98.7564C96.9323 93.2822 101.771 88.342 107.148 87.9415" fill="var(--color-b)" />
  <path fill-rule="evenodd" clip-rule="evenodd" d="M126.907 34.2671C128.788 35.7358 131.073 39.8748 132.418 43.6133C133.493 47.6189 132.955 50.4228 130.805 49.6216C128.116 48.9541 125.025 44.4144 124.084 39.6078C123.009 35.2017 124.353 32.7984 126.907 34.1335" fill="var(--color-b)" />
  <path fill-rule="evenodd" clip-rule="evenodd" d="M131.88 58.0331C134.031 58.4337 135.644 62.4392 135.778 66.9789C135.778 71.5185 134.031 75.524 131.88 75.9246C129.192 76.3251 126.772 72.3196 126.772 66.9789C126.772 61.6381 129.057 57.6326 131.88 58.0331Z" fill="var(--color-b)" />
  <path fill-rule="evenodd" clip-rule="evenodd" d="M130.939 84.3363C133.09 83.5352 133.627 86.3391 132.552 90.3446C131.208 94.0831 128.923 98.2222 127.041 99.6909C124.622 101.16 123.277 98.7563 124.353 94.2167C125.294 89.5435 128.385 84.8704 131.073 84.2028" fill="var(--color-b)" />
  <path fill-rule="evenodd" clip-rule="evenodd" d="M53.7857 131.068C49.6189 129.999 45.452 128.531 41.6885 126.662C42.3605 126.929 43.5702 127.329 45.1832 127.997C45.5864 128.13 46.1241 128.264 46.6617 128.531C48.5435 129.198 50.0221 129.465 51.0974 129.465C53.7857 129.02 56.6979 128.308 59.8342 127.329C61.4472 126.662 62.1193 125.593 61.716 124.258C61.716 124.125 61.716 123.991 61.716 123.858C61.4472 120.386 65.7484 117.315 71.3937 117.315C77.0391 117.315 81.3403 120.253 81.0715 123.724C80.6682 126.662 76.367 128.931 71.3937 129.065C70.7217 129.065 70.184 129.065 69.6464 129.065C67.3614 128.798 65.3452 129.065 63.7322 129.599C60.5959 130.4 57.6388 130.934 54.8609 131.201C53.7856 131.201 53.5168 131.201 53.9201 131.201" fill="var(--color-b)" />
  <path fill-rule="evenodd" clip-rule="evenodd" d="M13.8648 36.9375C15.2089 36.2699 16.0154 37.6051 15.3433 40.142C14.8057 42.6788 13.0583 45.3492 11.5797 45.7497C10.2356 46.2838 9.83243 44.6816 10.3701 42.4118C11.0421 40.142 12.5207 37.7386 13.7304 36.9375" fill="var(--color-b)" />
</svg>