<svg width="169" height="34" viewBox="0 0 169 34" fill="none" xmlns="http://www.w3.org/2000/svg">
  <g clip-path="url(#clip0_12_875)">
    <path d="M2.16205 0.0510559H23.3707V4.13514C23.3707 5.30931 22.4184 6.27928 21.2087 6.27928H14.8255V25.1937H8.57097V6.25376H0V2.16967C0 0.995501 0.95233 0.0510559 2.16205 0.0510559Z" fill="white" />
    <path d="M25.5327 5.66667H29.7539C30.8606 5.66667 31.7615 6.56007 31.7615 7.65766V25.1682H25.5327V5.66667Z" fill="white" />
    <path d="M41.2333 7.60661C42.0827 6.84085 42.9063 6.33034 43.7042 6.07508C44.5021 5.81983 45.3258 5.6922 46.2009 5.6922C47.2819 5.6922 48.3372 5.94745 49.3153 6.45796C50.2933 6.96847 51.1684 7.68319 51.9406 8.55106C52.7128 9.44445 53.3048 10.491 53.7423 11.6652C54.1799 12.8649 54.4115 14.1411 54.4115 15.4685V25.1682H48.26V16.3619C48.26 15.8769 48.1828 15.4174 48.0026 14.9324C47.8482 14.473 47.5908 14.039 47.3076 13.6562C46.9988 13.2733 46.6384 12.967 46.2009 12.7372C45.7633 12.5075 45.3 12.4054 44.7853 12.4054C44.2705 12.4054 43.7815 12.5075 43.3439 12.7372C42.9063 12.967 42.546 13.2733 42.2629 13.6562C41.954 14.039 41.7224 14.473 41.5679 14.9324C41.4135 15.3919 41.3363 15.8769 41.3363 16.3619V25.1682H35.0818V7.65766C35.0818 6.56007 35.9826 5.66667 37.0894 5.66667H41.2591V7.60661H41.2333Z" fill="white" />
    <path d="M66.6631 25.4234C65.3247 25.4234 64.0377 25.1682 62.828 24.6577C61.6183 24.1472 60.563 23.4324 59.6879 22.5646C58.8128 21.6967 58.0921 20.6502 57.5773 19.4505C57.0626 18.2508 56.8052 17.0255 56.8052 15.6982C56.8052 14.3709 57.0626 13.0946 57.5773 11.9204C58.0921 10.7462 58.8128 9.6997 59.6879 8.80631C60.563 7.91291 61.644 7.22373 62.828 6.71322C64.0377 6.2027 65.3247 5.94745 66.6631 5.94745H67.6412C68.9796 5.94745 70.2665 6.2027 71.4762 6.71322C72.6859 7.22373 73.7412 7.93844 74.6163 8.80631C75.4914 9.67418 76.2121 10.7207 76.7269 11.9204C77.2417 13.0946 77.4991 14.3709 77.4991 15.6982C77.4991 17.0255 77.2417 18.2763 76.7269 19.4505C76.2121 20.6246 75.4914 21.6712 74.6163 22.5646C73.7412 23.458 72.6859 24.1472 71.4762 24.6577C70.2665 25.1682 68.9796 25.4234 67.6412 25.4234H66.6631ZM67.1264 11.3844C66.5601 11.3844 66.0454 11.4865 65.5563 11.7162C65.0673 11.9459 64.6297 12.2523 64.2436 12.6351C63.8576 13.018 63.5744 13.4775 63.3685 13.988C63.1626 14.4985 63.0339 15.0601 63.0339 15.6216C63.0339 16.1832 63.1369 16.7703 63.3685 17.3063C63.5744 17.8423 63.8833 18.3018 64.2436 18.6847C64.6297 19.0676 65.0673 19.3739 65.5563 19.6036C66.0454 19.8333 66.5859 19.9354 67.1264 19.9354C67.6669 19.9354 68.2589 19.8078 68.7479 19.6036C69.2369 19.3994 69.7002 19.0676 70.0606 18.6847C70.4209 18.2763 70.704 17.8423 70.9357 17.3318C71.1416 16.8213 71.2703 16.2598 71.2703 15.6727C71.2703 15.0856 71.1673 14.5496 70.9357 14.039C70.7298 13.5285 70.4209 13.0691 70.0606 12.6862C69.7002 12.3033 69.2627 11.997 68.7479 11.7673C68.2331 11.5375 67.6926 11.4354 67.1264 11.4354" fill="white" />
    <path d="M94.1263 5.66667H98.3989C99.5057 5.66667 100.407 6.56007 100.407 7.65766V25.1682H94.1521V23.4324C93.4571 23.994 92.685 24.4024 91.8356 24.7087C90.9862 25.015 90.0853 25.1682 89.1073 25.1682H88.2064C86.9967 25.1682 85.8642 24.9129 84.7832 24.4024C83.7022 23.8919 82.7756 23.2027 81.9777 22.3348C81.1798 21.467 80.562 20.446 80.0988 19.2463C79.6355 18.0721 79.4038 16.7958 79.4038 15.4685C79.4038 14.1411 79.6355 12.8649 80.0988 11.6652C80.562 10.4655 81.1798 9.41892 81.9777 8.55106C82.7756 7.65766 83.7022 6.96847 84.7832 6.45796C85.8642 5.94745 86.9967 5.6922 88.2064 5.6922H89.1073C90.0853 5.6922 90.9862 5.84535 91.8356 6.15166C92.685 6.45796 93.4571 6.8919 94.1521 7.47898V5.6922L94.1263 5.66667ZM85.8127 15.9279C85.8127 16.464 85.9157 16.949 86.1216 17.4084C86.3275 17.8679 86.6106 18.2763 86.971 18.6336C87.3313 18.991 87.7689 19.2463 88.2322 19.4505C88.7212 19.6547 89.236 19.7568 89.7507 19.7568C90.2655 19.7568 90.7545 19.6547 91.2178 19.4505C91.6811 19.2463 92.1187 18.9655 92.479 18.6336C92.8394 18.2763 93.1225 17.8934 93.3284 17.4084C93.5343 16.949 93.6373 16.4384 93.6373 15.9279V14.8814C93.6373 14.3709 93.5343 13.8859 93.3284 13.4264C93.1225 12.967 92.8394 12.5586 92.479 12.1757C92.1187 11.8183 91.7069 11.5375 91.2178 11.3333C90.7545 11.1291 90.2655 11.027 89.7507 11.027C89.236 11.027 88.7212 11.1291 88.2322 11.3333C87.7431 11.5375 87.3313 11.8183 86.971 12.1757C86.6106 12.533 86.3275 12.9414 86.1216 13.4264C85.9157 13.8859 85.8127 14.3709 85.8127 14.8814V15.9279Z" fill="white" />
    <path d="M129.954 5.66667H134.047V7.78529C134.279 7.53004 134.587 7.24925 134.973 6.994C135.334 6.73874 135.746 6.50901 136.209 6.30481C136.646 6.10061 137.11 5.94745 137.599 5.84535C138.088 5.71772 138.551 5.66667 139.014 5.66667H141.614V11.946L140.636 11.6141C140.018 11.3844 139.349 11.3078 138.628 11.3589C137.908 11.4099 137.238 11.5631 136.621 11.8183C136.003 12.0736 135.437 12.4565 134.973 12.9414C134.51 13.4264 134.201 14.0135 134.047 14.6772V25.1171H127.973V7.65766C127.973 6.56007 128.873 5.66667 129.98 5.66667" fill="white" />
    <path d="M117.986 5.66667V7.45346C117.291 6.8919 116.493 6.43244 115.618 6.12613C114.743 5.81983 113.868 5.66667 112.941 5.66667H111.963C110.779 5.66667 109.647 5.92193 108.566 6.43244C107.485 6.94295 106.558 7.65766 105.76 8.52553C104.962 9.41892 104.319 10.4655 103.855 11.6396C103.392 12.8393 103.161 14.1156 103.161 15.4429C103.161 16.7703 103.392 18.0466 103.855 19.2207C104.319 20.3949 104.962 21.4414 105.76 22.3093C106.558 23.1772 107.485 23.8664 108.566 24.3769C109.647 24.8874 110.779 25.1426 111.963 25.1426H112.941C113.868 25.1426 114.743 24.9895 115.618 24.6832C116.493 24.3769 117.265 23.9685 117.986 23.4069V24.3003C117.986 24.8363 117.883 25.3213 117.677 25.7808C117.677 25.8318 117.626 25.8574 117.6 25.9084C119.067 25.8574 120.508 25.7297 121.924 25.3979C122.799 25.1937 123.468 24.9129 124.138 24.479L124.24 24.4024C124.24 24.4024 124.24 24.3003 124.24 24.2748V7.65766C124.24 6.56007 123.34 5.66667 122.233 5.66667H117.96H117.986ZM117.471 15.9279C117.471 16.464 117.368 16.949 117.162 17.4084C116.956 17.8679 116.673 18.2763 116.313 18.6336C115.953 18.991 115.515 19.2463 115.052 19.4505C114.563 19.6547 114.048 19.7568 113.533 19.7568C113.018 19.7568 112.555 19.6547 112.092 19.4505C111.629 19.2463 111.217 18.9655 110.856 18.6336C110.496 18.2763 110.213 17.8934 110.007 17.4084C109.801 16.949 109.698 16.4384 109.698 15.9279V14.8814C109.698 14.3709 109.801 13.8859 110.007 13.4264C110.213 12.967 110.496 12.5586 110.856 12.1757C111.217 11.8183 111.629 11.5375 112.092 11.3333C112.555 11.1291 113.044 11.027 113.533 11.027C114.022 11.027 114.563 11.1291 115.052 11.3333C115.541 11.5375 115.953 11.8183 116.313 12.1757C116.673 12.533 116.956 12.9414 117.162 13.4264C117.368 13.8859 117.471 14.3709 117.471 14.8814V15.9279Z" fill="white" />
    <path d="M124.343 24.8363C124.343 24.8363 124.266 24.8874 124.241 24.8874C123.494 25.3468 122.773 25.6021 122.001 25.7808C120.483 26.1126 118.964 26.2402 117.42 26.2913C117.034 26.2913 116.648 26.3168 116.262 26.3168C114.228 26.3679 112.169 26.0616 110.136 26.1892C108.849 26.2913 107.665 26.521 106.584 26.9294C105.683 27.2613 104.834 27.7207 104.061 28.2823C102.929 29.1246 101.977 30.2222 101.204 31.6261C100.818 32.3153 100.484 33.03 100.278 33.9489C101.101 33.3619 101.925 33.0811 102.774 32.8769C104.267 32.5195 105.786 32.3919 107.304 32.3664C108.257 32.3408 109.209 32.3408 110.161 32.3664C111.654 32.3664 113.147 32.5961 114.64 32.494C118.218 32.2132 121.152 30.7838 123.134 27.7207C123.314 27.4399 123.494 27.1336 123.649 26.8273C123.7 26.7252 123.7 26.7252 123.803 26.4955C123.906 26.2658 124.009 26.0871 124.112 25.7808C124.266 25.3724 124.292 25.1171 124.292 24.9895C124.292 24.9384 124.292 24.8619 124.292 24.8363" fill="#63A96D" />
    <path d="M25.4041 0.408416C26.9741 -0.280773 28.8016 -0.102094 30.1657 0.893401C31.6328 1.96547 32.3278 3.77779 31.9931 5.56457C31.9931 5.53905 31.9417 5.46247 31.8645 5.38589C30.7834 3.98199 27.9007 5.23274 27.1285 4.08409C26.5623 3.26728 26.9998 2.75676 26.2534 1.45496C25.9703 0.969978 25.6357 0.61262 25.4041 0.408416Z" fill="#63A96D" />
    <path fillRule="evenodd" clipRule="evenodd" d="M151.781 6.71322C152.604 6.08359 153.428 5.47949 154.252 4.90091C154.638 4.64565 154.818 4.36487 154.818 4.05857C154.818 4.03304 154.818 4.00751 154.818 3.98199C154.869 3.42043 155.719 2.98649 156.671 2.96097C157.623 2.96097 158.447 3.42043 158.524 3.98199C158.602 4.64565 157.778 5.23274 156.671 5.20721C156.542 5.20721 156.414 5.20721 156.285 5.18169C155.796 5.13064 155.333 5.20721 154.972 5.488C154.132 6.08359 153.291 6.71322 152.45 7.37688C152.064 7.68319 151.832 8.11712 151.858 8.55106C151.858 8.60211 151.858 8.65316 151.858 8.70421C151.781 9.77628 150.854 10.7207 149.799 10.7973C148.821 10.8739 148.152 10.1081 148.306 9.13815C148.461 8.1937 149.31 7.35136 150.236 7.19821C150.339 7.19821 150.468 7.17268 150.571 7.19821C151.009 7.19821 151.446 7.07058 151.832 6.76427" fill="#63A96D" />
    <path fillRule="evenodd" clipRule="evenodd" d="M144.188 17.97C144.111 17.6637 144.034 17.3574 143.982 17.0511C143.982 16.7107 144.008 16.3449 144.059 15.9535C144.136 15.7237 144.162 15.3408 144.136 14.958C144.136 14.9324 144.136 14.8814 144.136 14.8303C144.136 13.9369 144.471 13.1712 144.909 13.0946C145.449 13.018 145.938 13.8093 145.912 14.8303C145.912 14.8814 145.912 14.9324 145.912 14.9835C145.912 15.4429 146.015 15.8769 146.273 16.1832C146.873 16.8979 147.525 17.6381 148.229 18.4039C148.564 18.7357 148.975 18.9144 149.387 18.8378C149.49 18.8378 149.619 18.8378 149.748 18.8378C149.876 18.8378 150.005 18.8634 150.108 18.9144C150.571 19.042 151.034 18.9399 151.369 18.6336C152.176 17.9189 153.008 17.1787 153.866 16.4129C154.278 16.0556 154.458 15.5706 154.432 15.009C154.432 14.958 154.432 14.8814 154.432 14.8303C154.432 13.6051 155.436 12.6351 156.645 12.6351C156.8 12.6351 156.954 12.6351 157.083 12.6862C157.624 12.7883 158.138 12.6862 158.55 12.3033C159.408 11.5546 160.24 10.8313 161.047 10.1336C161.407 9.82733 161.536 9.3934 161.484 8.93394C161.484 8.88289 161.484 8.83184 161.484 8.78079C161.381 7.78529 162.128 7.12163 163.106 7.24925C164.007 7.42793 164.83 8.27028 164.985 9.18919C165.113 10.1847 164.496 10.9249 163.518 10.8484C163.389 10.8484 163.26 10.8228 163.157 10.7718C162.694 10.6441 162.257 10.7463 161.896 11.0526C161.09 11.7673 160.266 12.499 159.425 13.2478C159.013 13.6051 158.833 14.0901 158.859 14.6517C158.859 14.7027 158.859 14.7793 158.859 14.8303C158.859 16.03 157.855 17.0255 156.645 17.0255C156.491 17.0255 156.337 17.0255 156.208 16.9745C155.667 16.8724 155.153 16.9745 154.741 17.3574C153.883 18.1061 153.042 18.8378 152.218 19.5526C151.858 19.8589 151.704 20.2928 151.781 20.7523C151.781 20.8033 151.781 20.8544 151.781 20.9054C151.884 21.9009 151.112 22.5901 150.134 22.4369C149.233 22.2838 148.383 21.4159 148.203 20.497C148.203 20.446 148.203 20.4204 148.203 20.3694C148.177 19.9354 147.972 19.5015 147.663 19.1697C147.011 18.4379 146.393 17.7062 145.81 16.9745C145.578 16.6426 145.32 16.515 145.063 16.5661C145.012 16.5661 144.934 16.5661 144.883 16.5661C144.831 16.5661 144.754 16.5405 144.703 16.515C144.497 16.3874 144.368 16.4895 144.265 16.7192C144.162 17.1787 144.119 17.6041 144.136 17.9955L144.188 17.97Z" fill="#63A96D" />
    <path fillRule="evenodd" clipRule="evenodd" d="M145.217 18.7357C145.552 18.8378 145.938 19.3994 146.041 19.961C146.17 20.5225 146.015 20.8033 145.706 20.6502C145.449 20.497 145.14 19.9865 144.986 19.476C144.857 18.9655 144.96 18.6081 145.243 18.7102" fill="white" />
    <path fillRule="evenodd" clipRule="evenodd" d="M151.24 3.7012C152.038 3.497 152.604 3.7012 152.45 4.26276C152.321 4.92643 151.395 5.61562 150.468 5.7943C149.593 5.9985 149.13 5.61562 149.387 5.02853C149.67 4.51802 150.468 3.95646 151.24 3.7012Z" fill="white" />
    <path fillRule="evenodd" clipRule="evenodd" d="M149.644 13.3243C150.391 13.3243 151.009 13.9625 151.009 14.8048C151.009 15.6471 150.391 16.3108 149.644 16.2853C148.924 16.2853 148.358 15.5961 148.358 14.8048C148.358 14.0135 148.924 13.3499 149.644 13.3243Z" fill="white" />
    <path fillRule="evenodd" clipRule="evenodd" d="M150.648 24.5045C151.06 24.6066 151.498 24.9129 151.575 25.2192C151.678 25.5 151.421 25.6021 151.009 25.5255C150.623 25.4234 150.237 25.1171 150.108 24.8619C150.005 24.5811 150.237 24.4279 150.648 24.53" fill="white" />
    <path fillRule="evenodd" clipRule="evenodd" d="M156.671 7.12163C157.546 7.12163 158.293 7.78529 158.318 8.57658C158.318 9.41892 157.598 10.1081 156.671 10.1081C155.745 10.1081 154.998 9.41892 155.024 8.57658C155.024 7.78529 155.77 7.14715 156.671 7.12163Z" fill="white" />
    <path fillRule="evenodd" clipRule="evenodd" d="M156.671 19.042C157.881 19.042 158.833 19.9354 158.782 21.0075C158.73 22.0285 157.778 22.8453 156.646 22.8709C155.513 22.8709 154.561 22.054 154.535 21.033C154.509 19.9354 155.462 19.042 156.671 19.042Z" fill="white" />
    <path fillRule="evenodd" clipRule="evenodd" d="M162.025 3.75225C162.771 4.00751 163.569 4.59459 163.852 5.07958C164.11 5.66667 163.672 6.02402 162.823 5.84535C161.896 5.66667 160.995 4.95195 160.841 4.31381C160.686 3.75225 161.227 3.54805 162.025 3.77778" fill="white" />
    <path fillRule="evenodd" clipRule="evenodd" d="M163.646 12.7372C164.624 12.7883 165.397 13.7072 165.422 14.8048C165.422 15.9024 164.624 16.8468 163.646 16.8724C162.591 16.9234 161.716 15.979 161.742 14.8048C161.742 13.6306 162.617 12.6862 163.646 12.7372Z" fill="white" />
    <path fillRule="evenodd" clipRule="evenodd" d="M163.543 18.7868C164.521 18.7102 165.139 19.4504 165.01 20.4459C164.856 21.3649 164.032 22.2327 163.106 22.3859C162.128 22.539 161.407 21.8754 161.484 20.8799C161.562 19.8333 162.488 18.8889 163.518 18.8123" fill="white" />
    <path fillRule="evenodd" clipRule="evenodd" d="M167.301 8.55105C167.662 8.83184 168.099 9.62313 168.357 10.3378C168.562 11.1036 168.459 11.6396 168.048 11.4865C167.533 11.3589 166.941 10.491 166.761 9.57208C166.555 8.72973 166.812 8.27027 167.301 8.52553" fill="white" />
    <path fillRule="evenodd" clipRule="evenodd" d="M168.254 13.0946C168.665 13.1712 168.974 13.9369 169 14.8048C169 15.6727 168.665 16.4384 168.254 16.515C167.739 16.5916 167.276 15.8258 167.276 14.8048C167.276 13.7838 167.713 13.018 168.254 13.0946Z" fill="white" />
    <path fillRule="evenodd" clipRule="evenodd" d="M168.073 18.1231C168.485 17.97 168.588 18.506 168.382 19.2718C168.125 19.9865 167.687 20.7778 167.327 21.0586C166.864 21.3393 166.606 20.8799 166.812 20.012C166.992 19.1186 167.584 18.2252 168.099 18.0976" fill="white" />
    <path fillRule="evenodd" clipRule="evenodd" d="M153.299 27.0571C152.501 26.8529 151.704 26.5721 150.983 26.2147C151.112 26.2658 151.343 26.3423 151.652 26.47C151.729 26.4955 151.832 26.521 151.935 26.5721C152.296 26.6997 152.579 26.7508 152.785 26.7508C153.299 26.6657 153.857 26.5295 154.458 26.3423C154.766 26.2147 154.895 26.0105 154.818 25.7553C154.818 25.7297 154.818 25.7042 154.818 25.6787C154.766 25.015 155.59 24.4279 156.671 24.4279C157.752 24.4279 158.576 24.9895 158.524 25.6532C158.447 26.2147 157.623 26.6487 156.671 26.6742C156.542 26.6742 156.44 26.6742 156.337 26.6742C155.899 26.6231 155.513 26.6742 155.204 26.7763C154.603 26.9294 154.037 27.0315 153.505 27.0826C153.299 27.0826 153.248 27.0826 153.325 27.0826" fill="white" />
    <path fillRule="evenodd" clipRule="evenodd" d="M145.655 9.06155C145.912 8.93393 146.067 9.18918 145.938 9.67417C145.835 10.1592 145.501 10.6697 145.217 10.7462C144.96 10.8483 144.883 10.542 144.986 10.1081C145.114 9.67417 145.398 9.21471 145.629 9.06155" fill="white" />
  </g>
  <defs>
    <clipPath id="clip0_12_875">
      <rect width="169" height="34" fill="white" />
    </clipPath>
  </defs>
</svg>