<svg width="49" height="65" viewBox="0 0 49 65" fill="none" xmlns="http://www.w3.org/2000/svg">
  <g clip-path="url(#clip0_72_212)">
    <path d="M35.2295 64.522H0.478149V0.477783H48.5219V51.2372L35.2295 64.522Z" fill="#F5F5F5" />
    <path d="M35.22 51.2278H48.5219L35.22 64.5222V51.2278Z" fill="#F5F5F5" />
    <path d="M24.4522 33.4317C24.2322 33.4317 24.0505 33.2502 24.0505 33.0303V7.63627C24.0505 7.41645 24.2322 7.23486 24.4522 7.23486C24.6721 7.23486 24.8538 7.41645 24.8538 7.63627V33.0208C24.8538 33.2406 24.6721 33.4222 24.4522 33.4222V33.4317Z" fill="#D1D1D1" />
    <path d="M38.9304 35.8211H9.96451C9.74456 35.8211 9.56287 35.6395 9.56287 35.4197C9.56287 35.1999 9.74456 35.0183 9.96451 35.0183H38.9304C39.1503 35.0183 39.332 35.1999 39.332 35.4197C39.332 35.6395 39.1503 35.8211 38.9304 35.8211Z" fill="#D1D1D1" />
    <path d="M9.96451 55.9586C9.74456 55.9586 9.56287 55.777 9.56287 55.5572V35.4292C9.56287 35.2094 9.74456 35.0278 9.96451 35.0278C10.1845 35.0278 10.3661 35.2094 10.3661 35.4292V55.5572C10.3661 55.777 10.1845 55.9586 9.96451 55.9586Z" fill="#D1D1D1" />
    <path d="M38.9303 46.2674C38.7104 46.2674 38.5287 46.0858 38.5287 45.8659V35.4292C38.5287 35.2094 38.7104 35.0278 38.9303 35.0278C39.1503 35.0278 39.332 35.2094 39.332 35.4292V45.8659C39.332 46.0858 39.1503 46.2674 38.9303 46.2674Z" fill="#D1D1D1" />
    <path d="M35.612 5.52417H13.388V9.75811H35.612V5.52417Z" fill="#004BE9" />
    <path d="M35.612 21.6858H13.388V25.2029H35.612V21.6858Z" fill="#004BE9" />
    <path d="M35.612 13.7817H13.388V17.2989H35.612V13.7817Z" fill="#40C851" />
    <path d="M14.4112 43.467H5.51776V47.5481H14.4112V43.467Z" fill="#004BE9" />
    <path d="M14.4112 53.512H5.51776V57.593H14.4112V53.512Z" fill="#40C851" />
    <path d="M43.3388 42.9224H34.4454V47.0034H43.3388V42.9224Z" fill="#004BE9" />
    <path d="M24.4986 29.1407L18.21 35.4258L24.4986 41.7108L30.7872 35.4258L24.4986 29.1407Z" fill="#40C851" />
    <path d="M24.5 42.387L17.5383 35.4292L24.5 28.4714L31.4618 35.4292L24.5 42.387ZM18.8866 35.4292L24.5 41.0394L30.1134 35.4292L24.5 29.819L18.8866 35.4292Z" fill="#40C851" />
  </g>
  <defs>
    <clipPath id="clip0_72_212">
      <rect width="49" height="65" fill="white" />
    </clipPath>
  </defs>
</svg>