<svg width="60" height="44" viewBox="0 0 60 44" fill="none" xmlns="http://www.w3.org/2000/svg">
  <g clip-path="url(#clip0_72_130)">
    <path d="M30.0543 9.94562C29.2736 9.94562 28.5269 10.061 27.814 10.2783C27.1691 6.00807 23.4827 2.73584 19.036 2.73584C14.5893 2.73584 10.903 6.00807 10.258 10.2783C9.55197 10.061 8.79841 9.94562 8.01769 9.94562C3.77464 9.94562 0.339478 13.3876 0.339478 17.6238C0.339478 21.8601 3.77464 25.302 8.01769 25.302H30.0543C34.2974 25.302 37.7326 21.8669 37.7326 17.6238C37.7326 13.3808 34.2974 9.94562 30.0543 9.94562Z" fill="#40C851" />
    <path d="M51.9823 19.8438C51.2016 19.8438 50.4548 19.9592 49.742 20.1765C49.0971 15.9063 45.4107 12.634 40.964 12.634C36.5173 12.634 32.8309 15.9063 32.186 20.1765C31.4799 19.9592 30.7264 19.8438 29.9457 19.8438C25.7026 19.8438 22.2675 23.279 22.2675 27.522C22.2675 31.7651 25.7026 35.2002 29.9457 35.2002H51.9823C56.2254 35.2002 59.6605 31.7651 59.6605 27.522C59.6605 23.279 56.2254 19.8438 51.9823 19.8438Z" fill="#004BE9" />
    <path d="M51.5274 13.7271C51.3849 13.7271 51.2491 13.632 51.2016 13.4895C50.8825 12.444 50.4616 11.4188 49.9524 10.448C48.486 7.62387 46.2932 5.2274 43.6116 3.5234C38.1602 0.0474979 31.2084 -0.26479 25.4854 2.70873C25.3156 2.79699 25.112 2.7291 25.0305 2.56617C24.9422 2.39645 25.0101 2.19278 25.1731 2.11131C31.1133 -0.977621 38.3231 -0.658544 43.9782 2.94634C46.7617 4.71824 49.0359 7.20296 50.5566 10.1358C51.0794 11.1473 51.5207 12.2131 51.8533 13.2926C51.9076 13.4691 51.8058 13.6592 51.6293 13.7135C51.5953 13.7271 51.5614 13.7271 51.5274 13.7271Z" fill="#D1D1D1" />
    <path d="M54.5553 11.8059L52.3286 18.201L47.9022 13.0754L54.5553 11.8059Z" fill="#D1D1D1" />
    <path d="M52.4575 18.8662L47.264 12.8581L55.0712 11.3645L52.4643 18.8662H52.4575ZM48.5471 13.2993L52.2063 17.5288L54.0461 12.2471L48.5539 13.2993H48.5471Z" fill="#D1D1D1" />
    <path d="M28.4929 43.2587C25.6755 43.2587 22.8446 42.6341 20.2377 41.3578C17.2709 39.9118 14.7319 37.6986 12.8853 34.9627C12.2472 34.019 11.6973 33.0143 11.2424 31.9688C11.1677 31.7991 11.2424 31.5954 11.4189 31.5207C11.5887 31.4461 11.7923 31.5207 11.867 31.6972C12.3015 32.702 12.8378 33.666 13.4488 34.5825C15.2275 37.2234 17.6783 39.3551 20.5364 40.7468C26.3476 43.5778 33.2859 43.0958 38.6355 39.4909C38.7916 39.389 39.0021 39.4298 39.1039 39.5859C39.2058 39.7421 39.165 39.9525 39.0089 40.0543C35.8588 42.1793 32.1793 43.2519 28.4861 43.2519L28.4929 43.2587Z" fill="#D1D1D1" />
    <path d="M8.73047 33.7542L10.2104 27.1487L15.1935 31.738L8.73047 33.7542Z" fill="#D1D1D1" />
    <path d="M8.2688 34.2497L10.0135 26.4968L15.8588 31.8804L8.27559 34.2497H8.2688ZM10.4141 27.7935L9.1853 33.2517L14.5281 31.5885L10.4141 27.8003V27.7935Z" fill="#D1D1D1" />
  </g>
  <defs>
    <clipPath id="clip0_72_130">
      <rect width="60" height="43.2587" fill="white" />
    </clipPath>
  </defs>
</svg>